# xmcd CD database file
# Copyright (C) 1997 Ti Kan
#
# Track frame offsets:
#  150
#  21510
#  34680
#  45092
#  64297
#  77297
#  93755
#  116332
#  136017
#  152822
#  166390
#  183307
#  200390
#  221915
#
# Disc length: 3261 seconds
#
# Revision: 1
# Processed by: cddbd v1.4b41PL1 Copyright (c) Steve Scherf et al.
# Submitted via: CDWizzard Release:4.32
#
DISCID=ad0cbb0e
DTITLE=Vidar Busk and His True Believers - Stompin Our Feet With Joy
DYEAR=1900
DGENRE=
TTITLE0=Stompin Our Feet With Joy
TTITLE1=Boogie Leg
TTITLE2=Working Man Blues
TTITLE3=5-10-15 Hours
TTITLE4=Lucy Mae Blues
TTITLE5=Anywhere You Go
TTITLE6=The Ballad Of Vidar Busk
TTITLE7=Live My Life Too Fast
TTITLE8=Low Down Shakin' Chill
TTITLE9=Shrimps At South Peak
TTITLE10=Lawdy Miss Clawdy
TTITLE11=Use What You Got
TTITLE12=Make Me Feel So Bad
TTITLE13=She Wants To Sell My Monkey
EXTD=
EXTT0=
EXTT1=
EXTT2=
EXTT3=
EXTT4=
EXTT5=
EXTT6=
EXTT7=
EXTT8=
EXTT9=
EXTT10=
EXTT11=
EXTT12=
EXTT13=
PLAYORDER=
